# Blender 3.1.2
# www.blender.org
mtllib stone_block_2x2_2.mtl
o stone_block_2x2_2
v -1.506714 -0.761820 1.703345
v -1.655310 0.852758 1.689402
v -1.577478 -0.848009 -1.725741
v -1.587072 0.860206 -1.721739
v 1.714473 -0.790570 1.687500
v 1.731390 0.840444 1.699855
v 1.706498 -0.849399 -1.663971
v 1.655693 0.853534 -1.742855
v -1.125119 0.854783 -1.766941
v -0.377011 0.799092 -1.765430
v 0.434227 0.877527 -1.765104
v 1.162839 0.886035 -1.769515
v 1.155459 -0.861320 -1.737789
v 0.427125 -0.834108 -1.765104
v -0.362828 -0.868146 -1.775469
v -0.898163 -0.872703 -1.874228
v 1.218527 0.895235 1.759618
v 0.434700 0.893480 1.761755
v -0.394415 0.878342 1.763901
v -1.118872 0.893937 1.755321
v -1.078964 -0.841329 1.760568
v -0.380890 -0.881695 1.765104
v 0.411847 -0.883860 1.764450
v 1.178084 -0.859495 1.754688
v -1.736965 0.876718 1.160749
v -1.736875 0.885474 0.391623
v -1.731530 0.897487 -0.398071
v -1.713201 0.873902 -1.178168
v -1.705867 -0.862223 -1.162924
v -1.755053 -0.885923 -0.397554
v -1.749940 -0.870227 0.408818
v -1.677515 -0.820919 1.166734
v 1.733964 0.882914 -1.168535
v 1.818317 0.916561 -0.403693
v 1.813954 0.907202 0.385109
v 1.807816 0.880421 1.188877
v 1.760972 -0.822784 1.156251
v 1.789725 -0.840696 0.381554
v 1.741510 -0.824522 -0.365864
v 1.757371 -0.861651 -1.153293
v 1.183805 0.968441 -1.168707
v 1.185453 0.982940 -0.396755
v 1.173105 0.970241 0.398976
v 1.227874 0.973434 1.185639
v 0.426721 0.988520 -1.168750
v 0.437378 1.009887 -0.398438
v 0.416285 0.995825 0.398438
v 0.440440 0.996050 1.168750
v -0.361019 0.980414 -1.168750
v -0.387708 0.991079 -0.398438
v -0.375269 0.999372 0.398438
v -0.367130 0.990882 1.168750
v -1.142428 0.960939 -1.176904
v -1.151279 0.978381 -0.401248
v -1.151896 0.980082 0.398167
v -1.141091 0.970425 1.168806
v -1.114962 -0.925828 -1.182104
v -1.125511 -0.920975 -0.398368
v -1.119193 -0.915803 0.399330
v -1.114717 -0.899055 1.170653
v -0.366547 -0.925165 -1.168750
v -0.369736 -0.939098 -0.398438
v -0.391912 -0.953882 0.398438
v -0.361444 -0.925220 1.168750
v 0.427652 -0.905845 -1.168750
v 0.406919 -0.946109 -0.398438
v 0.415994 -0.946528 0.398438
v 0.420343 -0.935279 1.168750
v 1.199657 -0.829381 -1.161279
v 1.190614 -0.929378 -0.397257
v 1.202980 -0.923559 0.398438
v 1.195636 -0.895768 1.167708
v -1.533987 -0.540833 1.768721
v -1.747631 0.034241 1.752666
v -1.709298 0.618012 1.749472
v -1.747293 0.592617 -1.757433
v -1.739024 0.006264 -1.772666
v -1.706547 -0.715235 -1.773484
v 1.760864 0.603359 -1.750229
v 1.801955 -0.017074 -1.707389
v 1.774045 -0.698964 -1.736556
v 1.835414 0.605835 1.786650
v 1.805871 0.015280 1.775138
v 1.781227 -0.556407 1.754688
v 1.289753 0.612332 1.953341
v 1.206594 0.051311 1.961875
v 1.168340 -0.695623 1.939479
v 0.462203 0.618351 1.965996
v 0.414870 0.007369 1.957769
v 0.436848 -0.700139 1.964432
v -0.399855 0.612478 1.937274
v -0.380993 0.066635 1.900071
v -0.391092 -0.710390 1.950497
v -1.159042 0.608642 1.922785
v -1.147268 0.079798 1.875841
v -1.087390 -0.659678 1.942190
v -1.147288 0.576704 -1.944962
v -1.122769 0.006600 -1.976897
v -0.907607 -0.708356 -2.059124
v -0.407249 0.495602 -1.982886
v -0.449470 -0.034968 -2.039117
v -0.384807 -0.700817 -1.988912
v 0.430683 0.609315 -1.967187
v 0.433391 0.050575 -1.996305
v 0.404324 -0.589780 -1.967187
v 1.171679 0.586564 -1.963858
v 1.193636 0.022948 -1.966042
v 1.197247 -0.686990 -1.922574
v 1.909732 0.616033 -1.163428
v 1.979402 0.050956 -1.116677
v 1.929335 -0.686421 -1.133332
v 2.080702 0.653197 -0.467090
v 2.147009 0.214127 -0.482972
v 1.970703 -0.674037 -0.371142
v 2.034911 0.618255 0.349991
v 2.096654 0.065704 0.287274
v 2.003542 -0.598820 0.374866
v 1.998087 0.595887 1.254190
v 2.019521 0.021189 1.139455
v 1.945771 -0.624219 1.167488
v -1.866437 0.616627 1.174556
v -1.922968 0.019521 1.172195
v -1.901254 -0.674426 1.173045
v -1.943000 0.600066 0.393544
v -1.977815 0.002866 0.396200
v -1.963812 -0.700244 0.418016
v -1.894349 0.604353 -0.432700
v -1.968535 0.000020 -0.413731
v -1.929319 -0.698705 -0.397262
v -1.858054 0.618744 -1.192269
v -1.928975 0.020376 -1.171869
v -1.931837 -0.719864 -1.167708
vn -0.8901 -0.4292 -0.1532
vn -0.6570 -0.4046 -0.6361
vn -0.2970 -0.8765 -0.3790
vn -0.3732 -0.9242 -0.0808
vn 0.1506 -0.3723 -0.9158
vn 0.6754 -0.3618 -0.6426
vn 0.3748 -0.8619 -0.3414
vn 0.0441 -0.9070 -0.4188
vn 0.9164 -0.3670 0.1599
vn 0.6854 -0.2940 0.6662
vn 0.4754 -0.7746 0.4171
vn 0.5018 -0.8601 0.0917
vn -0.1712 -0.3141 0.9338
vn -0.5763 -0.2854 0.7658
vn -0.4342 -0.7590 0.4852
vn -0.1551 -0.8711 0.4660
vn 0.0343 -0.9988 -0.0352
vn 0.4113 -0.9103 -0.0455
vn -0.0563 0.9934 -0.0998
vn -0.0582 0.8109 -0.5823
vn -0.4026 0.7591 -0.5116
vn -0.5637 0.8194 -0.1040
vn 0.5139 0.8473 -0.1340
vn 0.4475 0.7280 -0.5195
vn 0.0914 0.8231 -0.5605
vn 0.0706 0.9942 -0.0811
vn -0.0266 0.8425 -0.5381
vn -0.0079 0.9938 -0.1109
vn -0.0165 0.8211 -0.5706
vn -0.0169 0.9916 -0.1285
vn -0.0410 -0.8973 -0.4396
vn -0.0442 -0.9980 -0.0449
vn 0.0591 -0.9184 -0.3912
vn 0.0104 -0.9983 -0.0573
vn 0.0323 -0.9017 -0.4311
vn 0.0341 -0.9972 -0.0668
vn 0.1533 -0.3711 0.9158
vn 0.1306 -0.8855 0.4459
vn 0.0004 -0.3950 0.9187
vn 0.0157 -0.9178 0.3968
vn -0.0328 -0.3805 0.9242
vn -0.0285 -0.9141 0.4045
vn -0.1007 -0.3661 -0.9251
vn 0.0686 -0.4274 -0.9015
vn 0.0415 -0.3734 -0.9267
vn 0.0182 -0.9985 0.0513
vn 0.0876 -0.9949 0.0503
vn 0.0159 -0.9998 0.0112
vn 0.0912 -0.9958 0.0122
vn 0.0231 -0.9992 -0.0326
vn 0.0777 -0.9964 -0.0351
vn -0.0242 -0.9982 0.0552
vn -0.0211 -0.9997 0.0101
vn -0.0102 -0.9998 -0.0142
vn -0.0900 -0.9932 0.0744
vn -0.0619 -0.9979 0.0213
vn -0.0487 -0.9988 -0.0035
vn -0.4303 -0.8812 0.1958
vn -0.3796 -0.9244 0.0383
vn -0.3878 -0.9217 -0.0074
vn -0.0123 0.8348 0.5504
vn -0.0107 0.9960 0.0887
vn -0.0784 0.9944 0.0709
vn -0.0907 0.8205 0.5644
vn -0.0142 0.9999 0.0038
vn -0.0887 0.9960 0.0062
vn -0.0169 0.9998 -0.0105
vn -0.0840 0.9964 -0.0119
vn -0.0035 0.8471 0.5315
vn 0.0078 0.9965 0.0828
vn 0.0136 0.9999 0.0057
vn 0.0103 0.9999 -0.0058
vn 0.0920 0.8432 0.5297
vn 0.0786 0.9944 0.0703
vn 0.0725 0.9973 0.0097
vn 0.0738 0.9972 -0.0072
vn 0.4483 0.7691 0.4555
vn 0.5316 0.8416 0.0956
vn 0.4863 0.8734 0.0283
vn 0.4758 0.8789 -0.0340
vn -0.5891 0.8019 0.0994
vn -0.4996 0.7210 0.4801
vn -0.5504 0.8348 0.0095
vn -0.5526 0.8331 -0.0216
vn 0.4541 -0.8909 0.0134
vn 0.3946 -0.9188 -0.0115
vn 0.8984 -0.4169 -0.1381
vn 0.8671 -0.4973 -0.0296
vn 0.8999 -0.4351 0.0310
vn -0.8675 -0.4219 0.2635
vn -0.8971 -0.4401 0.0383
vn -0.9037 -0.4275 -0.0211
vn -0.9436 0.3013 -0.1373
vn -0.9481 0.3161 -0.0357
vn -0.9863 0.0322 -0.1619
vn -0.9988 0.0351 -0.0332
vn -0.9503 0.3110 0.0166
vn -0.9994 0.0254 0.0239
vn -0.9512 0.2673 0.1540
vn -0.9756 -0.0083 0.2194
vn -0.6780 0.2341 0.6968
vn -0.7015 -0.0344 0.7118
vn 0.9432 0.2832 0.1736
vn 0.9270 0.3707 0.0574
vn 0.9830 -0.0417 0.1788
vn 0.9981 -0.0338 0.0518
vn 0.9125 0.4004 -0.0839
vn 0.9963 0.0023 -0.0864
vn 0.9134 0.3369 -0.2283
vn 0.9738 -0.0075 -0.2274
vn 0.7178 0.2537 -0.6484
vn 0.7544 -0.0022 -0.6564
vn 0.1548 0.2427 -0.9577
vn -0.0041 0.3448 -0.9387
vn 0.2003 -0.0145 -0.9796
vn 0.0340 0.0005 -0.9994
vn -0.0154 0.3196 -0.9474
vn 0.0030 0.0295 -0.9996
vn -0.1380 0.2823 -0.9493
vn -0.1893 0.0334 -0.9814
vn -0.7165 0.2759 -0.6408
vn -0.7171 0.0161 -0.6968
vn -0.1301 0.2117 0.9686
vn -0.0283 0.2586 0.9656
vn -0.1456 -0.0098 0.9893
vn -0.0355 -0.0009 0.9994
vn -0.0143 0.2940 0.9557
vn -0.0200 -0.0022 0.9998
vn 0.1476 0.2727 0.9507
vn 0.1492 -0.0214 0.9886
vn 0.6864 0.2653 0.6771
vn 0.7013 -0.0539 0.7108
vt 1.578422 -0.175840
vt -0.392391 -0.169925
vt -0.158399 0.073196
vt 1.524859 0.879117
vt -0.390424 0.741254
vt -0.160406 0.525112
vt 0.519547 -0.075659
vt 0.279335 0.099747
vt 0.504411 0.685756
vt 0.260726 0.515005
vt -0.109362 0.539767
vt -0.003793 0.554420
vt 0.116374 0.546241
vt 0.211643 0.529155
vt 0.653910 0.771656
vt 0.411404 0.830886
vt 0.874397 0.829004
vt 0.200749 0.943222
vt 1.125263 0.864905
vt -0.062880 0.953943
vt 1.364938 0.885449
vt -0.285049 0.866392
vt 0.226111 0.081785
vt 0.124644 0.058885
vt 0.001994 0.050846
vt -0.098051 0.060699
vt -0.256165 -0.289113
vt 1.408877 -0.196657
vt -0.028142 -0.355718
vt 1.169486 -0.197069
vt 0.214982 -0.335088
vt 0.921421 -0.183530
vt 0.421550 -0.226067
vt 0.682347 -0.147525
vt -0.179560 0.131469
vt -0.196131 0.238903
vt -0.196081 0.356938
vt -0.181912 0.464860
vt 1.556172 0.715537
vt -0.510333 0.631646
vt 1.585836 0.477586
vt -0.594474 0.419859
vt 1.594623 0.224738
vt -0.594623 0.174207
vt 1.594622 -0.011096
vt -0.510743 -0.040032
vt 0.278995 0.456492
vt 0.293349 0.358528
vt 0.293693 0.252084
vt 0.288625 0.152667
vt 0.580546 0.064730
vt 0.610637 0.231354
vt 0.609104 0.399479
vt 0.569541 0.558874
vt 0.208458 0.455007
vt 0.209378 0.356526
vt 0.208861 0.251717
vt 0.218566 0.152609
vt 0.109059 0.461074
vt 0.108903 0.356465
vt 0.108127 0.248840
vt 0.116090 0.144516
vt -0.000404 0.464015
vt -0.003889 0.355921
vt -0.000053 0.245802
vt 0.004869 0.138291
vt -0.106169 0.461856
vt -0.110616 0.355418
vt -0.109401 0.242969
vt -0.100718 0.137615
vt 1.378631 0.703434
vt 1.390718 0.466899
vt 1.398655 0.222568
vt 1.408394 -0.014260
vt 1.141942 0.682122
vt 1.163487 0.452602
vt 1.180045 0.217875
vt 1.169322 -0.013040
vt 0.908009 0.652054
vt 0.942378 0.436402
vt 0.950953 0.215619
vt 0.936279 -0.002264
vt 0.695285 0.607355
vt 0.741078 0.417255
vt 0.745354 0.221611
vt 0.718728 0.024189
vt -0.338014 -0.122389
vt -0.240621 -0.007939
vt -0.177697 0.051329
vt -0.190743 0.543259
vt -0.248009 0.607011
vt -0.357665 0.703916
vt 0.288816 0.530986
vt 0.350805 0.578617
vt 0.464074 0.660410
vt 0.301614 0.083021
vt 0.364208 0.032326
vt 0.457261 -0.036062
vt 0.249827 0.043421
vt 0.283887 -0.035957
vt 0.369671 -0.174495
vt 0.137074 0.008182
vt 0.150402 -0.099645
vt 0.199458 -0.256478
vt 0.000006 0.001165
vt -0.004291 -0.099580
vt -0.023628 -0.282817
vt -0.112745 0.017513
vt -0.150467 -0.063268
vt -0.220213 -0.222381
vt -0.122846 0.584301
vt -0.157348 0.668696
vt -0.241856 0.807920
vt -0.009482 0.615325
vt -0.022327 0.714284
vt -0.051908 0.877206
vt 0.121863 0.596269
vt 0.139596 0.694598
vt 0.168349 0.847715
vt 0.224341 0.572738
vt 0.271331 0.648798
vt 0.370439 0.772285
vt 0.320032 0.465864
vt 0.401018 0.492591
vt 0.520386 0.538679
vt 0.339870 0.362164
vt 0.427540 0.373061
vt 0.553428 0.391222
vt 0.340927 0.250663
vt 0.426924 0.244494
vt 0.545362 0.236552
vt 0.329229 0.138275
vt 0.410010 0.122776
vt 0.523106 0.083432
vt -0.219272 0.117657
vt -0.310520 0.076491
vt -0.449053 -0.000762
vt -0.251324 0.233302
vt -0.357523 0.217810
vt -0.516274 0.186094
vt -0.247726 0.366237
vt -0.358023 0.378108
vt -0.521301 0.404904
vt -0.220107 0.477054
vt -0.312982 0.514143
vt -0.454056 0.589207
s 1
usemtl rock
f 132/146/1 78/92/2 3/5/3 29/40/4
f 108/122/5 81/95/6 7/9/7 13/16/8
f 120/134/9 84/98/10 5/7/11 37/51/12
f 96/110/13 73/87/14 1/2/15 21/27/16
f 69/83/17 13/15/8 7/9/7 40/54/18
f 53/67/19 9/11/20 4/6/21 28/38/22
f 33/47/23 8/10/24 12/14/25 41/55/26
f 41/55/26 12/14/25 11/13/27 45/59/28
f 45/59/28 11/13/27 10/12/29 49/63/30
f 49/63/30 10/12/29 9/11/20 53/67/19
f 29/39/4 3/4/3 16/21/31 57/71/32
f 57/71/32 16/21/31 15/19/33 61/75/34
f 61/75/34 15/19/33 14/17/35 65/79/36
f 65/79/36 14/17/35 13/15/8 69/83/17
f 84/98/10 87/101/37 24/33/38 5/7/11
f 87/101/37 90/104/39 23/31/40 24/33/38
f 90/104/39 93/107/41 22/29/42 23/31/40
f 93/107/41 96/110/13 21/27/16 22/29/42
f 78/92/2 99/113/43 16/22/31 3/5/3
f 99/113/43 102/116/44 15/20/33 16/22/31
f 102/116/44 105/119/45 14/18/35 15/20/33
f 105/119/45 108/122/5 13/16/8 14/18/35
f 23/32/40 68/82/46 72/86/47 24/34/38
f 68/82/46 67/81/48 71/85/49 72/86/47
f 67/81/48 66/80/50 70/84/51 71/85/49
f 66/80/50 65/79/36 69/83/17 70/84/51
f 22/30/42 64/78/52 68/82/46 23/32/40
f 64/78/52 63/77/53 67/81/48 68/82/46
f 63/77/53 62/76/54 66/80/50 67/81/48
f 62/76/54 61/75/34 65/79/36 66/80/50
f 21/28/16 60/74/55 64/78/52 22/30/42
f 60/74/55 59/73/56 63/77/53 64/78/52
f 59/73/56 58/72/57 62/76/54 63/77/53
f 58/72/57 57/71/32 61/75/34 62/76/54
f 1/1/15 32/45/58 60/74/55 21/28/16
f 32/45/58 31/43/59 59/73/56 60/74/55
f 31/43/59 30/41/60 58/72/57 59/73/56
f 30/41/60 29/39/4 57/71/32 58/72/57
f 19/25/61 52/66/62 56/70/63 20/26/64
f 52/66/62 51/65/65 55/69/66 56/70/63
f 51/65/65 50/64/67 54/68/68 55/69/66
f 50/64/67 49/63/30 53/67/19 54/68/68
f 18/24/69 48/62/70 52/66/62 19/25/61
f 48/62/70 47/61/71 51/65/65 52/66/62
f 47/61/71 46/60/72 50/64/67 51/65/65
f 46/60/72 45/59/28 49/63/30 50/64/67
f 17/23/73 44/58/74 48/62/70 18/24/69
f 44/58/74 43/57/75 47/61/71 48/62/70
f 43/57/75 42/56/76 46/60/72 47/61/71
f 42/56/76 41/55/26 45/59/28 46/60/72
f 6/8/77 36/50/78 44/58/74 17/23/73
f 36/50/78 35/49/79 43/57/75 44/58/74
f 35/49/79 34/48/80 42/56/76 43/57/75
f 34/48/80 33/47/23 41/55/26 42/56/76
f 20/26/64 56/70/63 25/35/81 2/3/82
f 56/70/63 55/69/66 26/36/83 25/35/81
f 55/69/66 54/68/68 27/37/84 26/36/83
f 54/68/68 53/67/19 28/38/22 27/37/84
f 24/34/38 72/86/47 37/51/12 5/7/11
f 72/86/47 71/85/49 38/52/85 37/51/12
f 71/85/49 70/84/51 39/53/86 38/52/85
f 70/84/51 69/83/17 40/54/18 39/53/86
f 81/95/6 111/125/87 40/54/18 7/9/7
f 111/125/87 114/128/88 39/53/86 40/54/18
f 114/128/88 117/131/89 38/52/85 39/53/86
f 117/131/89 120/134/9 37/51/12 38/52/85
f 73/87/14 123/137/90 32/46/58 1/2/15
f 123/137/90 126/140/91 31/44/59 32/46/58
f 126/140/91 129/143/92 30/42/60 31/44/59
f 129/143/92 132/146/1 29/40/4 30/42/60
f 27/37/84 28/38/22 130/144/93 127/141/94
f 127/141/94 130/144/93 131/145/95 128/142/96
f 128/142/96 131/145/95 132/146/1 129/143/92
f 26/36/83 27/37/84 127/141/94 124/138/97
f 124/138/97 127/141/94 128/142/96 125/139/98
f 125/139/98 128/142/96 129/143/92 126/140/91
f 25/35/81 26/36/83 124/138/97 121/135/99
f 121/135/99 124/138/97 125/139/98 122/136/100
f 122/136/100 125/139/98 126/140/91 123/137/90
f 2/3/82 25/35/81 121/135/99 75/89/101
f 75/89/101 121/135/99 122/136/100 74/88/102
f 74/88/102 122/136/100 123/137/90 73/87/14
f 35/49/79 36/50/78 118/132/103 115/129/104
f 115/129/104 118/132/103 119/133/105 116/130/106
f 116/130/106 119/133/105 120/134/9 117/131/89
f 34/48/80 35/49/79 115/129/104 112/126/107
f 112/126/107 115/129/104 116/130/106 113/127/108
f 113/127/108 116/130/106 117/131/89 114/128/88
f 33/47/23 34/48/80 112/126/107 109/123/109
f 109/123/109 112/126/107 113/127/108 110/124/110
f 110/124/110 113/127/108 114/128/88 111/125/87
f 8/10/24 33/47/23 109/123/109 79/93/111
f 79/93/111 109/123/109 110/124/110 80/94/112
f 80/94/112 110/124/110 111/125/87 81/95/6
f 11/13/27 12/14/25 106/120/113 103/117/114
f 103/117/114 106/120/113 107/121/115 104/118/116
f 104/118/116 107/121/115 108/122/5 105/119/45
f 10/12/29 11/13/27 103/117/114 100/114/117
f 100/114/117 103/117/114 104/118/116 101/115/118
f 101/115/118 104/118/116 105/119/45 102/116/44
f 9/11/20 10/12/29 100/114/117 97/111/119
f 97/111/119 100/114/117 101/115/118 98/112/120
f 98/112/120 101/115/118 102/116/44 99/113/43
f 4/6/21 9/11/20 97/111/119 76/90/121
f 76/90/121 97/111/119 98/112/120 77/91/122
f 77/91/122 98/112/120 99/113/43 78/92/2
f 19/25/61 20/26/64 94/108/123 91/105/124
f 91/105/124 94/108/123 95/109/125 92/106/126
f 92/106/126 95/109/125 96/110/13 93/107/41
f 18/24/69 19/25/61 91/105/124 88/102/127
f 88/102/127 91/105/124 92/106/126 89/103/128
f 89/103/128 92/106/126 93/107/41 90/104/39
f 17/23/73 18/24/69 88/102/127 85/99/129
f 85/99/129 88/102/127 89/103/128 86/100/130
f 86/100/130 89/103/128 90/104/39 87/101/37
f 6/8/77 17/23/73 85/99/129 82/96/131
f 82/96/131 85/99/129 86/100/130 83/97/132
f 83/97/132 86/100/130 87/101/37 84/98/10
f 20/26/64 2/3/82 75/89/101 94/108/123
f 94/108/123 75/89/101 74/88/102 95/109/125
f 95/109/125 74/88/102 73/87/14 96/110/13
f 36/50/78 6/8/77 82/96/131 118/132/103
f 118/132/103 82/96/131 83/97/132 119/133/105
f 119/133/105 83/97/132 84/98/10 120/134/9
f 12/14/25 8/10/24 79/93/111 106/120/113
f 106/120/113 79/93/111 80/94/112 107/121/115
f 107/121/115 80/94/112 81/95/6 108/122/5
f 28/38/22 4/6/21 76/90/121 130/144/93
f 130/144/93 76/90/121 77/91/122 131/145/95
f 131/145/95 77/91/122 78/92/2 132/146/1
